<svg width="101"
    height="101"
    viewBox="0 0 101 101"
    fill="none"
    xmlns="http://www.w3.org/2000/svg">
    <path
        d="M43.2747 0C34.7158 0 26.3491 2.53802 19.2326 7.2931C12.1161 12.0482 6.56947 18.8068 3.29411 26.7142C0.0187502 34.6216 -0.838233 43.3227 0.83153 51.7171C2.50129 60.1116 6.62281 67.8224 12.6749 73.8745C18.7269 79.9266 26.4378 84.0481 34.8322 85.7178C43.2267 87.3876 51.9278 86.5306 59.8352 83.2552C67.7426 79.9799 74.5012 74.4333 79.2563 67.3168C84.0113 60.2003 86.5494 51.8336 86.5494 43.2747C86.535 31.8019 81.9712 20.8031 73.8587 12.6907C65.7462 4.57819 54.7475 0.0143141 43.2747 0ZM59.9188 46.6035H46.6035V59.9188C46.6035 60.8016 46.2528 61.6483 45.6285 62.2726C45.0042 62.8969 44.1575 63.2476 43.2747 63.2476C42.3918 63.2476 41.5451 62.8969 40.9209 62.2726C40.2966 61.6483 39.9459 60.8016 39.9459 59.9188V46.6035H26.6306C25.7477 46.6035 24.901 46.2528 24.2768 45.6285C23.6525 45.0042 23.3018 44.1575 23.3018 43.2747C23.3018 42.3918 23.6525 41.5451 24.2768 40.9208C24.901 40.2966 25.7477 39.9459 26.6306 39.9459H39.9459V26.6306C39.9459 25.7477 40.2966 24.901 40.9209 24.2767C41.5451 23.6525 42.3918 23.3017 43.2747 23.3017C44.1575 23.3017 45.0042 23.6525 45.6285 24.2767C46.2528 24.901 46.6035 25.7477 46.6035 26.6306V39.9459H59.9188C60.8017 39.9459 61.6483 40.2966 62.2726 40.9208C62.8969 41.5451 63.2476 42.3918 63.2476 43.2747C63.2476 44.1575 62.8969 45.0042 62.2726 45.6285C61.6483 46.2528 60.8017 46.6035 59.9188 46.6035Z"
        fill="white" />
</svg>
