<svg width="54"
    height="54"
    viewBox="0 0 54 54"
    fill="none"
    xmlns="http://www.w3.org/2000/svg">
    <g id="Interface / Bookmark">
        <path
            id="Vector"
            d="M13.3828 16.0617V37.221C13.3828 40.2572 13.3828 41.775 13.8382 42.704C14.6821 44.4259 16.5317 45.4155 18.4325 45.1626C19.4581 45.0261 20.7212 44.184 23.2475 42.4998L23.2536 42.4958C24.2549 41.8283 24.7556 41.4944 25.2794 41.3093C26.2414 40.9693 27.2911 40.9693 28.2532 41.3093C28.778 41.4948 29.2807 41.8299 30.2861 42.5002C32.8123 44.1844 34.0769 45.0258 35.1024 45.1622C37.0033 45.4151 38.8528 44.4259 39.6967 42.704C40.152 41.7751 40.152 40.2567 40.152 37.221V16.0544C40.152 13.5606 40.152 12.3118 39.6662 11.3584C39.2385 10.5189 38.5542 9.83687 37.7147 9.40913C36.7603 8.92285 35.5127 8.92285 33.014 8.92285H20.5217C18.023 8.92285 16.7727 8.92285 15.8184 9.40913C14.9789 9.83687 14.2968 10.5189 13.8691 11.3584C13.3828 12.3128 13.3828 13.5631 13.3828 16.0617Z"
            stroke="#414141"
            stroke-width="3"
            stroke-linecap="round"
            stroke-linejoin="round" />
    </g>
</svg>
