<svg width="101"
    height="101"
    viewBox="0 0 101 101"
    fill="none"
    xmlns="http://www.w3.org/2000/svg">
    <path
        d="M25.0996 30.1195V69.7981C25.0996 75.4917 25.0996 78.3379 25.9535 80.08C27.5361 83.309 31.0045 85.1647 34.569 84.6904C36.4922 84.4345 38.8609 82.8554 43.5982 79.6972L43.6096 79.6896C45.4873 78.4378 46.4263 77.8118 47.4085 77.4647C49.2126 76.827 51.181 76.827 52.985 77.4647C53.9692 77.8125 54.9119 78.441 56.7972 79.6978C61.5345 82.8561 63.9059 84.4339 65.829 84.6898C69.3935 85.1641 72.8618 83.309 74.4444 80.08C75.2982 78.3381 75.2982 75.4907 75.2982 69.7981V30.1058C75.2982 25.4293 75.2982 23.0876 74.3872 21.2996C73.5851 19.7254 72.3019 18.4464 70.7276 17.6443C68.9379 16.7324 66.5984 16.7324 61.9128 16.7324H38.4867C33.8011 16.7324 31.4565 16.7324 29.6668 17.6443C28.0926 18.4464 26.8136 19.7254 26.0115 21.2996C25.0996 23.0893 25.0996 25.4339 25.0996 30.1195Z"
        stroke="#414141"
        stroke-width="6.92395"
        stroke-linecap="round"
        stroke-linejoin="round" />
    <circle
        cx="35.1404"
        cy="73.2898"
        r="11.0437"
        fill="#414141" />
    <circle
        cx="65.2595"
        cy="73.2898"
        r="11.0437"
        fill="#414141" />
    <rect
        x="26.1025"
        y="18.0718"
        width="48.1907"
        height="58.2304"
        fill="#414141" />
</svg>
