<svg width="40"
    height="40"
    viewBox="0 0 40 40"
    fill="none"
    xmlns="http://www.w3.org/2000/svg">
    <path
        id="Vector"
        d="M2 13.8965V34.5172C2 35.6276 2 36.1825 2.21611 36.6066C2.4062 36.9797 2.7093 37.2836 3.08238 37.4737C3.5061 37.6896 4.06107 37.6896 5.16934 37.6896H25.7932M23.8103 21.8275V15.8793M23.8103 15.8793V9.93102M23.8103 15.8793H17.862M23.8103 15.8793H29.7586M9.93102 23.4141V8.3452C9.93102 6.12431 9.93102 5.01303 10.3632 4.16476C10.7434 3.41861 11.3496 2.8124 12.0958 2.43221C12.9441 2 14.0553 2 16.2762 2H31.3452C33.566 2 34.6759 2 35.5242 2.43221C36.2703 2.8124 36.8776 3.41861 37.2578 4.16476C37.69 5.01303 37.69 6.12352 37.69 8.34437L37.69 23.4134C37.69 25.6343 37.69 26.7447 37.2578 27.593C36.8776 28.3391 36.2703 28.9466 35.5242 29.3268C34.6767 29.7586 33.5684 29.7586 31.3519 29.7586H16.2697C14.0531 29.7586 12.9432 29.7586 12.0958 29.3268C11.3496 28.9466 10.7434 28.3393 10.3632 27.5932C9.93102 26.7449 9.93102 25.635 9.93102 23.4141Z"
        stroke="#414141"
        stroke-width="3"
        stroke-linecap="round"
        stroke-linejoin="round" />
</svg>
