<svg width="40"
    height="40"
    viewBox="0 0 40 40"
    fill="none"
    xmlns="http://www.w3.org/2000/svg">
    <g id="Group 258">
        <g id="Group 143">
            <path
                id="Vector"
                d="M24 25C22.346 25 21 23.654 21 22L21.053 18.947L18.018 19C16.346 19 15 17.654 15 16C15 14.346 16.346 13 18 13L21.053 12.946L21 10.018C21 8.346 22.346 7 24 7C25.654 7 27 8.346 27 10L27.055 12.946L30.018 13C31.654 13 33 14.346 33 16C33 17.654 31.654 19 30 19L27.055 18.947L27 22.018C27 23.654 25.654 25 24 25ZM23 17V22.018C23 22.551 23.449 23 24 23C24.551 23 25 22.551 25 22V17H30.018C30.551 17 31 16.551 31 16C31 15.449 30.551 15 30 15H25V10C25 9.431 24.551 9 24 9C23.449 9 23 9.449 23 10V15H18C17.431 15 17 15.449 17 16C17 16.551 17.449 17 18 17H23Z"
                fill="#414141" />
            <path
                id="Vector_2"
                d="M2 13.8965V34.5172C2 35.6276 2 36.1825 2.21611 36.6066C2.4062 36.9797 2.7093 37.2836 3.08238 37.4737C3.5061 37.6896 4.06107 37.6896 5.16934 37.6896H25.7932M9.93102 23.4141V8.3452C9.93102 6.12431 9.93102 5.01303 10.3632 4.16476C10.7434 3.41861 11.3496 2.8124 12.0958 2.43221C12.9441 2 14.0553 2 16.2762 2H31.3451C33.566 2 34.6759 2 35.5242 2.43221C36.2703 2.8124 36.8776 3.41861 37.2578 4.16476C37.69 5.01303 37.69 6.12352 37.69 8.34437L37.69 23.4134C37.69 25.6343 37.69 26.7447 37.2578 27.593C36.8776 28.3391 36.2703 28.9466 35.5242 29.3268C34.6767 29.7586 33.5684 29.7586 31.3519 29.7586H16.2697C14.0531 29.7586 12.9432 29.7586 12.0958 29.3268C11.3496 28.9466 10.7434 28.3393 10.3632 27.5932C9.93102 26.7449 9.93102 25.635 9.93102 23.4141Z"
                stroke="#414141"
                stroke-width="3"
                stroke-linecap="round"
                stroke-linejoin="round" />
            <rect
                id="Rectangle 343"
                x="10"
                y="3"
                width="12"
                height="11"
                fill="#414141" />
            <rect
                id="Rectangle 344"
                x="26"
                y="3"
                width="12"
                height="11"
                fill="#414141" />
            <rect
                id="Rectangle 345"
                x="10"
                y="18"
                width="12"
                height="11"
                fill="#414141" />
            <rect
                id="Rectangle 346"
                x="26"
                y="18"
                width="12"
                height="11"
                fill="#414141" />
            <rect
                id="Rectangle 347"
                x="18"
                y="3"
                width="11"
                height="5"
                fill="#414141" />
            <rect
                id="Rectangle 348"
                x="20"
                y="24"
                width="11"
                height="5"
                fill="#414141" />
            <rect
                id="Rectangle 349"
                x="37.0312"
                y="11.0127"
                width="11"
                height="5"
                transform="rotate(90.1493 37.0312 11.0127)"
                fill="#414141" />
            <rect
                id="Rectangle 350"
                x="16.0312"
                y="11.0127"
                width="11"
                height="5"
                transform="rotate(90.1493 16.0312 11.0127)"
                fill="#414141" />
        </g>
    </g>
</svg>
