<svg width="101"
    height="101"
    viewBox="0 0 101 101"
    fill="none"
    xmlns="http://www.w3.org/2000/svg">
    <path
        d="M50.1984 8.36719C73.3023 8.36719 92.0306 27.0955 92.0306 50.1994C92.0306 73.3033 73.3023 92.0316 50.1984 92.0316C27.0945 92.0316 8.36621 73.3033 8.36621 50.1994C8.36621 27.0955 27.0945 8.36719 50.1984 8.36719ZM66.9313 46.0162H33.4655C32.3561 46.0162 31.292 46.4569 30.5075 47.2414C29.723 48.0259 29.2823 49.0899 29.2823 50.1994C29.2823 51.3088 29.723 52.3729 30.5075 53.1574C31.292 53.9419 32.3561 54.3826 33.4655 54.3826H66.9313C68.0407 54.3826 69.1048 53.9419 69.8893 53.1574C70.6738 52.3729 71.1145 51.3088 71.1145 50.1994C71.1145 49.0899 70.6738 48.0259 69.8893 47.2414C69.1048 46.4569 68.0407 46.0162 66.9313 46.0162Z"
        fill="white" />
</svg>
