<svg width="80"
    height="89"
    viewBox="0 0 80 89"
    fill="none"
    xmlns="http://www.w3.org/2000/svg">
    <path
        d="M26.875 18.0597L40 5M40 5L53.125 18.0597M40 5V48.5323M18.126 35.4726C14.049 35.4726 12.0105 35.4726 10.4025 36.1354C8.25853 37.019 6.55413 38.715 5.66605 40.8483C5 42.4483 5 44.4756 5 48.5323V69.4279C5 74.3039 5 76.7403 5.95369 78.6027C6.79258 80.2409 8.13019 81.5755 9.77661 82.4102C11.6465 83.3582 14.0956 83.3582 18.9865 83.3582H61.0157C65.9065 83.3582 68.3521 83.3582 70.222 82.4102C71.8684 81.5755 73.2083 80.2409 74.0472 78.6027C75 76.7421 75 74.3079 75 69.4413V48.5323C75 44.4756 74.9995 42.4483 74.3335 40.8483C73.4454 38.715 71.7425 37.019 69.5985 36.1354C67.9905 35.4726 65.952 35.4726 61.875 35.4726"
        stroke="#414141"
        stroke-width="10"
        stroke-linecap="round"
        stroke-linejoin="round" />
</svg>
