<svg width="78"
    height="50"
    viewBox="0 0 78 50"
    fill="none"
    xmlns="http://www.w3.org/2000/svg">
    <path
        d="M50.6898 24.9947C50.6898 31.6245 45.4466 36.9991 38.9788 36.9991C32.5111 36.9991 27.2679 31.6245 27.2679 24.9947C27.2679 18.3649 32.5111 12.9904 38.9788 12.9904C45.4466 12.9904 50.6898 18.365 50.6898 24.9947ZM39 0C32.3034 0.0317821 25.3621 1.77604 18.7912 5.11552C13.9125 7.69717 9.15785 11.3395 5.03061 15.8353C3.00352 18.1302 0.418015 21.4532 0 24.9986C0.0494 28.0698 3.12845 31.8606 5.03061 34.1621C8.9009 38.4813 13.5317 42.0219 18.7912 44.8845C24.9189 48.0662 31.7013 49.8981 39 50C45.703 49.9677 52.6427 48.2034 59.2063 44.8845C64.0851 42.3028 68.8421 38.6578 72.9694 34.1621C74.9964 31.8672 77.5819 28.5441 78 24.9986C77.9506 21.9275 74.8715 18.1366 72.9694 15.8351C69.0991 11.516 64.4658 7.97799 59.2063 5.11538C53.0819 1.93606 46.2827 0.116766 39 0ZM38.9951 6.20675C49.1428 6.20675 57.3689 14.6213 57.3689 25.0014C57.3689 35.3814 49.1428 43.7959 38.9951 43.7959C28.8473 43.7959 20.6212 35.3813 20.6212 25.0014C20.6212 14.6213 28.8473 6.20675 38.9951 6.20675Z"
        fill="white" />
</svg>
