<svg width="27" height="24" viewBox="0 0 27 24" fill="none" xmlns="http://www.w3.org/2000/svg">
<g id="Group 270">
<path id="Shape" fill-rule="evenodd" clip-rule="evenodd" d="M1 7.06826C1 3.71999 4.21982 1 8.2 1C10.9739 1 12.1998 1.97506 13.5 3.70371C14.8002 1.97506 16.0261 1 18.8 1C22.7802 1 26 3.71999 26 7.06826C26 10.2026 23.8726 13.2166 21.4315 15.7175C19.1193 18.0863 16.3912 20.1268 14.5288 21.5198C14.4077 21.6104 14.2903 21.6982 14.1769 21.7832C13.7912 22.0723 13.2088 22.0723 12.8231 21.7832C12.7097 21.6982 12.5923 21.6104 12.4712 21.5198C10.6088 20.1268 7.88065 18.0863 5.56845 15.7175C3.12737 13.2166 1 10.2026 1 7.06826Z" fill="#FF4D57"/>
<path id="Vector" d="M13.5 5.34798C10.7222 -1.12302 1 -0.433801 1 7.83689C1 16.1076 13.5 23 13.5 23C13.5 23 26 16.1076 26 7.83689C26 -0.433801 16.2778 -1.12302 13.5 5.34798Z" fill="#FF4D57" stroke="#FF4D57" stroke-width="2" stroke-linecap="round" stroke-linejoin="round"/>
</g>
</svg>
