<svg width="150"
    height="150"
    viewBox="0 0 150 150"
    fill="none"
    xmlns="http://www.w3.org/2000/svg">
    <path
        fill-rule="evenodd"
        clip-rule="evenodd"
        d="M18.4443 56.2057C18.4443 39.7388 33.0127 26.3618 51.0214 26.3618C63.5723 26.3618 69.1189 31.1572 75.0017 39.6587C80.8846 31.1572 86.4311 26.3618 98.9821 26.3618C116.991 26.3618 131.559 39.7388 131.559 56.2057C131.559 71.6205 121.934 86.4437 110.889 98.7429C100.427 110.393 88.0834 120.428 79.6568 127.279C79.1089 127.724 78.5775 128.156 78.0643 128.574C76.3194 129.996 73.6841 129.996 71.9392 128.574C71.4259 128.156 70.8946 127.724 70.3466 127.279C61.9201 120.428 49.5765 110.393 39.1147 98.7429C28.0698 86.4437 18.4443 71.6205 18.4443 56.2057Z"
        fill="#414141" />
    <path
        d="M75.001 48.0892C62.501 18.749 18.751 21.874 18.751 59.3742C18.751 96.8744 75.001 128.125 75.001 128.125C75.001 128.125 131.251 96.8744 131.251 59.3742C131.251 21.874 87.501 18.749 75.001 48.0892Z"
        stroke="#414141"
        stroke-width="4.32352"
        stroke-linecap="round"
        stroke-linejoin="round" />
</svg>
