<svg width="56"
    height="43"
    viewBox="0 0 56 43"
    fill="none"
    xmlns="http://www.w3.org/2000/svg">
    <g id="Group 142">
        <path
            id="Vector"
            d="M48 34.473V20.5545C48 19.214 47.9989 18.5434 47.8364 17.9196C47.6925 17.3668 47.4562 16.8437 47.1364 16.371C46.7756 15.8375 46.2739 15.3952 45.2686 14.5124L33.2686 3.97566C31.402 2.33673 30.4688 1.51768 29.4185 1.20599C28.493 0.931338 27.5065 0.931338 26.5811 1.20599C25.5315 1.51744 24.5996 2.33572 22.7359 3.97218L10.7319 14.5125C9.7266 15.3952 9.2251 15.8375 8.86426 16.371C8.54448 16.8437 8.30637 17.3668 8.16243 17.9196C8 18.5434 8 19.214 8 20.5545V34.473C8 36.8108 8 37.9793 8.3806 38.9014C8.88807 40.1308 9.8608 41.1088 11.0859 41.6181C12.0048 42 13.1696 42 15.4994 42C17.8291 42 18.9952 42 19.9141 41.6181C21.1392 41.1088 22.1117 40.1311 22.6191 38.9016C22.9997 37.9796 23 36.8106 23 34.4728V31.964C23 29.1929 25.2386 26.9465 28 26.9465C30.7614 26.9465 33 29.1929 33 31.964V34.4728C33 36.8106 33 37.9796 33.3806 38.9016C33.8881 40.1311 34.8608 41.1088 36.0859 41.6181C37.0048 42 38.1696 42 40.4994 42C42.8291 42 43.9952 42 44.9141 41.6181C46.1392 41.1088 47.1117 40.1308 47.6191 38.9014C47.9997 37.9793 48 36.8108 48 34.473Z"
            stroke="#414141"
            stroke-width="2"
            stroke-linecap="round"
            stroke-linejoin="round" />
        <!--        <rect-->
        <!--            id="Rectangle 37"-->
        <!--            x="8"-->
        <!--            y="15"-->
        <!--            width="40"-->
        <!--            height="12"-->
        <!--            rx="3"-->
        <!--            fill="#414141" />-->
        <!--        <rect-->
        <!--            id="Rectangle 38"-->
        <!--            x="8"-->
        <!--            y="22"-->
        <!--            width="15"-->
        <!--            height="20"-->
        <!--            rx="3"-->
        <!--            fill="#414141" />-->
        <!--        <rect-->
        <!--            id="Rectangle 39"-->
        <!--            x="33"-->
        <!--            y="22"-->
        <!--            width="15"-->
        <!--            height="20"-->
        <!--            rx="3"-->
        <!--            fill="#414141" />-->
        <!--        <path-->
        <!--            id="Polygon 1"-->
        <!--            d="M26.0771 1.60585C27.1904 0.676068 28.8096 0.676068 29.9229 1.60585L45.8989 14.9473C48.0514 16.7449 46.7803 20.25 43.976 20.25H12.024C9.21966 20.25 7.94857 16.7449 10.1011 14.9473L26.0771 1.60585Z"-->
        <!--            fill="#414141" />-->
        <!--        <path-->
        <!--            id="Polygon 2"-->
        <!--            d="M19.693 23.3705L26.9361 24.883L20.5396 30.7212L19.693 23.3705Z"-->
        <!--            fill="#414141" />-->
        <!--        <path-->
        <!--            id="Polygon 3"-->
        <!--            d="M37.3473 24.8493L35.4916 32.0122L29.9646 25.3449L37.3473 24.8493Z"-->
        <!--            fill="#414141" />-->
    </g>
</svg>
