<svg width="150"
    height="150"
    viewBox="0 0 150 150"
    fill="none"
    xmlns="http://www.w3.org/2000/svg">
    <path
        d="M56.25 84.375L93.75 103.125M93.75 46.875L56.25 65.625M112.5 131.25C102.145 131.25 93.75 122.855 93.75 112.5C93.75 102.145 102.145 93.75 112.5 93.75C122.855 93.75 131.25 102.145 131.25 112.5C131.25 122.855 122.855 131.25 112.5 131.25ZM37.5 93.75C27.1447 93.75 18.75 85.3553 18.75 75C18.75 64.6447 27.1447 56.25 37.5 56.25C47.8553 56.25 56.25 64.6447 56.25 75C56.25 85.3553 47.8553 93.75 37.5 93.75ZM112.5 56.25C102.145 56.25 93.75 47.8553 93.75 37.5C93.75 27.1447 102.145 18.75 112.5 18.75C122.855 18.75 131.25 27.1447 131.25 37.5C131.25 47.8553 122.855 56.25 112.5 56.25Z"
        stroke="#414141"
        stroke-width="5.27615"
        stroke-linecap="round"
        stroke-linejoin="round" />
    <ellipse
        cx="37.5027"
        cy="75.0065"
        rx="19.5018"
        ry="18.0016"
        fill="#414141" />
    <ellipse
        cx="112.511"
        cy="39.0036"
        rx="19.5018"
        ry="18.0016"
        fill="#414141" />
    <ellipse
        cx="112.511"
        cy="114.011"
        rx="19.5018"
        ry="18.0016"
        fill="#414141" />
</svg>
