<svg width="80"
    height="80"
    viewBox="0 0 80 80"
    fill="none"
    xmlns="http://www.w3.org/2000/svg">
    <path
        d="M28.3342 9.66667H19.9342C14.7071 9.66667 12.0916 9.66667 10.0951 10.6839C8.33887 11.5788 6.91209 13.0055 6.01727 14.7617C5 16.7582 5 19.3738 5 24.6009V60.0676C5 65.2947 5 67.9069 6.01727 69.9035C6.91209 71.6596 8.33887 73.0889 10.0951 73.9837C12.0896 75 14.702 75 19.9189 75H55.4144C60.6314 75 63.24 75 65.2345 73.9837C66.9907 73.0889 68.4222 71.6583 69.3171 69.9021C70.3333 67.9075 70.3333 65.298 70.3333 60.0811V51.6667M75 28.3333V5M75 5H51.6667M75 5L42.3333 37.6667"
        stroke="#414141"
        stroke-width="10"
        stroke-linecap="round"
        stroke-linejoin="round" />
</svg>
