<svg width="106" height="106" viewBox="0 0 106 106" fill="none" xmlns="http://www.w3.org/2000/svg">
<g id="Group 271">
<g id="Group 269">
<g id="Group 270">
<path id="Vector" d="M81.8 101H24.2C17.4794 101 14.1188 101 11.552 99.692C9.29419 98.5418 7.4582 96.7058 6.308 94.448C5 91.8812 5 88.5206 5 81.8V24.2C5 17.4794 5 14.119 6.308 11.5521C7.4582 9.29414 9.29419 7.45838 11.552 6.30794C14.1188 5 17.4794 5 24.2 5H81.8C88.5206 5 91.881 5 94.4479 6.30794C96.7059 7.45838 98.5416 9.29414 99.6921 11.5521C101 14.119 101 17.4793 101 24.2V81.8C101 88.5206 101 91.8812 99.6921 94.448C98.5416 96.7058 96.7059 98.5418 94.4479 99.692C91.881 101 88.5207 101 81.8 101Z" stroke="#68BEAE" stroke-width="10" stroke-linecap="round" stroke-linejoin="round"/>
<path id="Vector_2" d="M61.0667 61.3333L72 50.6667M72 50.6667L61.0667 40M72 50.6667H41.9333C39.0336 50.6667 36.2527 51.7905 34.2023 53.7909C32.1519 55.7912 31 58.5044 31 61.3333C31 64.1623 32.1519 66.8754 34.2023 68.8758C36.2527 70.8762 39.0336 72 41.9333 72H44.6667" stroke="#68BEAE" stroke-width="10" stroke-linecap="round" stroke-linejoin="round"/>
</g>
</g>
</g>
</svg>
