<svg width="150"
    height="150"
    viewBox="0 0 150 150"
    fill="none"
    xmlns="http://www.w3.org/2000/svg">
    <path
        d="M73.9343 16.8551C74.3295 15.9051 75.6754 15.9051 76.0705 16.8551L92.6795 56.788C92.8461 57.1885 93.2228 57.4622 93.6552 57.4968L136.766 60.953C137.792 61.0352 138.208 62.3152 137.426 62.9846L104.58 91.1207C104.251 91.4029 104.107 91.8457 104.208 92.2676L114.243 134.336C114.481 135.337 113.392 136.128 112.514 135.592L75.6054 113.048C75.2352 112.822 74.7696 112.822 74.3994 113.048L37.4906 135.592C36.6124 136.128 35.5236 135.337 35.7623 134.336L45.7973 92.2676C45.898 91.8457 45.7541 91.4029 45.4246 91.1207L12.5787 62.9846C11.7973 62.3152 12.2132 61.0352 13.2388 60.953L56.3497 57.4968C56.7821 57.4622 57.1588 57.1885 57.3253 56.788L73.9343 16.8551Z"
        fill="#414141" />
    <path
        d="M14.593 64.6042C12.6352 62.7937 13.6987 59.5206 16.3468 59.2066L53.8691 54.7561C54.9484 54.6281 55.8859 53.9503 56.3411 52.9634L72.1675 18.6523C73.2844 16.2308 76.7268 16.2303 77.8437 18.6518L93.6702 52.9627C94.1254 53.9496 95.0567 54.6292 96.136 54.7572L133.66 59.2066C136.308 59.5206 137.369 62.7946 135.411 64.6052L107.673 90.2613C106.875 90.9992 106.52 92.0975 106.732 93.1635L114.093 130.224C114.613 132.84 111.829 134.866 109.502 133.564L76.5317 115.103C75.5833 114.572 74.4312 114.575 73.4828 115.106L40.5085 133.559C38.1816 134.861 35.3929 132.839 35.9126 130.224L43.2754 93.1658C43.4872 92.0999 43.1329 90.999 42.3349 90.2611L14.593 64.6042Z"
        stroke="#414141"
        stroke-width="7.712"
        stroke-linecap="round"
        stroke-linejoin="round" />
</svg>
