<svg width="150"
    height="150"
    viewBox="0 0 150 150"
    fill="none"
    xmlns="http://www.w3.org/2000/svg">
    <circle
        cx="75"
        cy="75"
        r="75"
        fill="#D3D3D3" />
    <path
        d="M91.666 74.9998C91.666 76.8408 93.1584 78.3332 94.9993 78.3332C96.8403 78.3332 98.3327 76.8408 98.3327 74.9998C98.3327 73.1589 96.8403 71.6665 94.9993 71.6665C93.1584 71.6665 91.666 73.1589 91.666 74.9998Z"
        stroke="black"
        stroke-width="5.27615"
        stroke-linecap="round"
        stroke-linejoin="round" />
    <path
        d="M71.666 74.9998C71.666 76.8408 73.1584 78.3332 74.9993 78.3332C76.8403 78.3332 78.3327 76.8408 78.3327 74.9998C78.3327 73.1589 76.8403 71.6665 74.9993 71.6665C73.1584 71.6665 71.666 73.1589 71.666 74.9998Z"
        stroke="black"
        stroke-width="5.27615"
        stroke-linecap="round"
        stroke-linejoin="round" />
    <path
        d="M51.666 74.9998C51.666 76.8408 53.1584 78.3332 54.9993 78.3332C56.8403 78.3332 58.3327 76.8408 58.3327 74.9998C58.3327 73.1589 56.8403 71.6665 54.9993 71.6665C53.1584 71.6665 51.666 73.1589 51.666 74.9998Z"
        stroke="black"
        stroke-width="5.27615"
        stroke-linecap="round"
        stroke-linejoin="round" />
    <circle
        cx="55.0007"
        cy="74.051"
        r="2.85714"
        fill="black" />
    <circle
        cx="74.0525"
        cy="75.9558"
        r="2.85714"
        fill="black" />
    <circle
        cx="95.0046"
        cy="75.9558"
        r="2.85714"
        fill="black" />
</svg>
