<svg width="41"
    height="41"
    viewBox="0 0 41 41"
    fill="none"
    xmlns="http://www.w3.org/2000/svg">
    <path
        d="M29.0417 34.1667C29.0417 31.3362 25.2174 29.0417 20.5 29.0417C15.7826 29.0417 11.9583 31.3362 11.9583 34.1667M35.875 29.0423C35.875 26.9407 33.7668 25.1346 30.75 24.3437M5.125 29.0423C5.125 26.9407 7.23325 25.1346 10.25 24.3437M30.75 17.4867C31.7985 16.5482 32.4583 15.1845 32.4583 13.6667C32.4583 10.8362 30.1638 8.54166 27.3333 8.54166C26.0207 8.54166 24.8234 9.03511 23.9167 9.84664M10.25 17.4867C9.20151 16.5482 8.54167 15.1845 8.54167 13.6667C8.54167 10.8362 10.8362 8.54166 13.6667 8.54166C14.9793 8.54166 16.1766 9.03511 17.0833 9.84664M20.5 23.9167C17.6695 23.9167 15.375 21.6221 15.375 18.7917C15.375 15.9612 17.6695 13.6667 20.5 13.6667C23.3305 13.6667 25.625 15.9612 25.625 18.7917C25.625 21.6221 23.3305 23.9167 20.5 23.9167Z"
        stroke="white"
        stroke-width="2"
        stroke-linecap="round"
        stroke-linejoin="round" />
</svg>
