<svg width="646"
    height="650"
    viewBox="0 0 646 650"
    fill="none"
    xmlns="http://www.w3.org/2000/svg">
    <path
        d="M645.167 566.945L587.64 512.588C576.738 503.826 564.929 498.487 544.396 498.008C557.564 483.099 567.924 477.476 577.615 475.14C639.161 358.864 604.108 174.24 500.794 4.58419C492.459 -9.4836 488.421 18.8642 480.518 37.5267C481.835 39.7557 483.132 42.0015 484.397 44.2724C516.407 101.427 539.473 180.824 549.559 249.661C554.623 283.89 556.348 315.424 553.801 340.696C552.622 353.343 550.376 364.425 546.409 373.769C543.38 380.818 539.279 387.167 533.374 391.672C531.469 393.182 529.396 394.479 526.966 395.543C516.337 400.173 504.514 398.513 493.697 393.991C482.88 389.468 471.929 381.95 460.546 372.363C437.695 353.084 412.694 325.001 386.889 293.076C340.751 235.917 292.288 166.473 254.445 116.524C231.955 109.878 199.745 94.223 193.796 99.1077C187.212 104.496 192.175 137.944 191.599 161.137C235.54 201.606 294.199 264.351 339.924 324.25C364.609 356.717 385.46 388.26 398.044 415.671C404.325 429.472 408.629 442.082 410.026 454.067C411.423 466.051 409.552 478.041 402.043 487.263C400.684 489.027 399.075 490.475 397.381 491.816L395.688 493.158C388.746 498.312 380.004 500.758 371.103 501.263C359.206 501.902 346.1 499.709 331.78 495.549C303.141 487.228 269.224 471.376 233.175 451.527C170.921 417.296 102.858 371.819 50.8186 335.698C25.3444 335.723 -12.0548 329.174 4.59268 344.753C115.129 450.81 315.985 578.685 451.028 566.283C455.357 556.308 462.721 546.685 482.193 536.256C478.827 552.014 479.663 563.289 483.085 573.481L541.229 649.276L645.167 566.945ZM518.601 372.369C520.188 371.112 522.097 368.738 523.953 364.339C526.47 358.384 528.581 349.305 529.667 338.281C531.84 316.234 530.341 286.071 525.418 253.108C515.947 188.091 493.458 111.337 464.569 58.6008C431.499 89.9633 376.421 115.678 286.572 118.808C322.461 167.378 365.168 227.6 405.773 277.774C431.159 309.169 455.679 336.427 476.156 353.797C486.489 362.493 495.781 368.569 503.02 371.619C510.26 374.67 514.415 374.479 517.247 373.269C517.648 373.124 518.071 372.788 518.601 372.369ZM381.315 473.709C382.056 473.122 382.607 472.513 383.265 471.82C385.491 469.195 386.672 464.814 385.867 456.839C384.956 448.948 381.592 438.177 375.916 425.792C364.731 401.234 344.635 370.644 320.537 338.918C279.569 285.241 226.787 228.176 185.497 188.881C156.984 268.139 123.872 308.32 82.1088 327.793C130.976 361.432 190.656 400.458 244.876 430.2C280.021 449.56 313.139 464.839 338.536 472.11C351.276 475.799 362.044 477.433 369.596 476.963C375.396 476.674 378.903 475.447 381.315 473.709Z"
        fill="white" />
</svg>
